Coordinates
version=1
nRows=38
nColumns=12
inDegrees=yes

Units are S.I. units (second, meters, Newtons, ...)
Angles are in degrees

endheader
time	SC_y	SC_z	SC_x	AC_y	AC_z	AC_x	GH_y	GH_z	GH_yy	EL_x	PS_y
       0.0              -24.72          10.07          75.03          50.34       -0.06153         -4.727          171.1          65.04         0.8747          94.96          63.94
   0.02689              -24.72          10.07          75.02          50.34       -0.06048         -4.727          171.0          65.03         0.8938          94.96          63.95
   0.05378              -24.73          10.07          75.01          50.35       -0.05937         -4.728          171.0          65.03         0.9142          94.96          63.95
   0.08067              -24.73          10.07           75.0          50.35       -0.05819         -4.728          170.9          65.02         0.9358          94.96          63.95
    0.1076              -24.74          10.06          74.99          50.35       -0.05693         -4.728          170.9          65.01         0.9588          94.97          63.95
    0.1344              -24.75          10.06          74.98          50.36       -0.05559         -4.728          170.9           65.0         0.9834          94.97          63.95
    0.1613              -24.75          10.06          74.96          50.36       -0.05415         -4.728          170.8          64.99           1.01          94.97          63.96
    0.1882              -24.76          10.06          74.95          50.36       -0.05262         -4.728          170.7          64.98          1.038          94.97          63.96
    0.2151              -24.77          10.05          74.93          50.37       -0.05098         -4.728          170.7          64.97          1.068          94.97          63.96
     0.242              -24.78          10.05          74.91          50.37       -0.04922         -4.728          170.6          64.96            1.1          94.98          63.96
    0.2689              -24.79          10.05           74.9          50.38       -0.04733         -4.728          170.6          64.95          1.134          94.98          63.97
    0.2958              -24.79          10.04          74.88          50.38       -0.04529         -4.728          170.5          64.94          1.172          94.98          63.97
    0.3227              -24.81          10.04          74.86          50.39        -0.0431         -4.728          170.4          64.93          1.212          94.99          63.97
    0.3496              -24.82          10.04          74.83           50.4       -0.04073         -4.729          170.3          64.91          1.255          94.99          63.98
    0.3764              -24.83          10.03          74.81           50.4       -0.03816         -4.729          170.2           64.9          1.302          94.99          63.98
    0.4033              -24.84          10.03          74.78          50.41       -0.03538         -4.729          170.1          64.88          1.353           95.0          63.98
    0.4302              -24.86          10.02          74.75          50.42       -0.03236         -4.729          170.0          64.86          1.408           95.0          63.99
    0.4571              -24.87          10.02          74.72          50.43       -0.02906         -4.729          169.9          64.84          1.469          95.01          63.99
     0.484              -24.89          10.01          74.69          50.44       -0.02547         -4.729          169.8          64.82          1.534          95.01           64.0
    0.5109              -24.91           10.0          74.65          50.45       -0.02153         -4.729          169.6          64.79          1.606          95.02          64.01
    0.5378              -24.93          9.996          74.61          50.46       -0.01721          -4.73          169.5          64.77          1.685          95.02          64.01
    0.5647              -24.95          9.988          74.56          50.47       -0.01245          -4.73          169.3          64.74          1.772          95.03          64.02
    0.5916              -24.98          9.979          74.51          50.49       -0.00719          -4.73          169.1          64.71          1.869          95.04          64.03
    0.6184              -25.01          9.969          74.46           50.5      -0.001367         -4.731          168.9          64.67          1.975          95.04          64.04
    0.6453              -25.04          9.957          74.39          50.52       0.005107         -4.731          168.7          64.63          2.093          95.05          64.05
    0.6722              -25.07          9.945          74.32          50.54        0.01233         -4.731          168.4          64.59          2.226          95.06          64.06
    0.6991              -25.11          9.931          74.25          50.56        0.02042         -4.732          168.1          64.54          2.374          95.07          64.07
     0.726              -25.15          9.915          74.16          50.59        0.02953         -4.732          167.8          64.48           2.54          95.09          64.08
    0.7529               -25.2          9.898          74.06          50.61        0.03981         -4.733          167.4          64.42          2.728           95.1           64.1
    0.7798              -25.26          9.878          73.95          50.64        0.05149         -4.733          167.0          64.35          2.942          95.12          64.12
    0.8067              -25.32          9.855          73.82          50.68        0.06482         -4.734          166.5          64.27          3.186          95.14          64.14
    0.8336               -25.4          9.828          73.67          50.72        0.08012         -4.735          166.0          64.17          3.465          95.16          64.16
    0.8604              -25.48          9.798          73.51          50.77        0.09778         -4.736          165.3          64.06          3.788          95.18          64.19
    0.8873              -25.58          9.763          73.31          50.82         0.1183         -4.737          164.6          63.94          4.164          95.21          64.22
    0.9142              -25.69          9.721          73.08          50.89         0.1423         -4.738          163.7          63.79          4.603          95.24          64.26
    0.9411              -25.83          9.673          72.81          50.97         0.1706         -4.739          162.7          63.62          5.121          95.28           64.3
     0.968              -25.99          9.615          72.48          51.06         0.2043         -4.741          161.5          63.41          5.736          95.33          64.35
    0.9949              -26.18          9.545           72.1          51.16         0.2446         -4.743          160.0          63.17          6.473          95.39          64.41
